<mxfile host="app.diagrams.net" modified="2024-05-02T17:16:03.525Z" agent="Mozilla/5.0 (Windows NT 10.0; Win64; x64) AppleWebKit/537.36 (KHTML, like Gecko) Chrome/124.0.0.0 Safari/537.36 Edg/124.0.0.0" etag="Cpeg8LphFIpD8kKPb7mH" version="24.2.7" type="device">
  <diagram name="Stránka-1" id="J7aJOD7EnO4zjppIxmtK">
    <mxGraphModel dx="1426" dy="785" grid="1" gridSize="10" guides="1" tooltips="1" connect="1" arrows="1" fold="1" page="1" pageScale="1" pageWidth="500" pageHeight="300" math="0" shadow="0">
      <root>
        <mxCell id="0" />
        <mxCell id="1" parent="0" />
        <mxCell id="ceeV8JHSW8xx54QV5j5Z-22" value="" style="rounded=0;whiteSpace=wrap;html=1;" parent="1" vertex="1">
          <mxGeometry x="50" y="150" width="400" height="110" as="geometry" />
        </mxCell>
        <mxCell id="ceeV8JHSW8xx54QV5j5Z-20" value="" style="rounded=0;whiteSpace=wrap;html=1;" parent="1" vertex="1">
          <mxGeometry x="50" y="40" width="400" height="110" as="geometry" />
        </mxCell>
        <mxCell id="ceeV8JHSW8xx54QV5j5Z-15" value="Řízení komponent" style="rounded=1;whiteSpace=wrap;html=1;fillColor=#dae8fc;strokeColor=#6c8ebf;" parent="1" vertex="1">
          <mxGeometry x="130" y="190" width="150" height="60" as="geometry" />
        </mxCell>
        <mxCell id="ceeV8JHSW8xx54QV5j5Z-16" value="Gazebo simulace" style="rounded=1;whiteSpace=wrap;html=1;fillColor=#e1d5e7;strokeColor=#9673a6;" parent="1" vertex="1">
          <mxGeometry x="290" y="190" width="150" height="60" as="geometry" />
        </mxCell>
        <mxCell id="ceeV8JHSW8xx54QV5j5Z-17" value="Ovládání robota" style="rounded=1;whiteSpace=wrap;html=1;fillColor=#dae8fc;strokeColor=#6c8ebf;" parent="1" vertex="1">
          <mxGeometry x="190" y="50" width="120" height="60" as="geometry" />
        </mxCell>
        <mxCell id="ceeV8JHSW8xx54QV5j5Z-18" value="slam_toolbox&lt;div&gt;navigation2&lt;/div&gt;" style="rounded=1;whiteSpace=wrap;html=1;fillColor=#f8cecc;strokeColor=#b85450;" parent="1" vertex="1">
          <mxGeometry x="320" y="50" width="120" height="60" as="geometry" />
        </mxCell>
        <mxCell id="ceeV8JHSW8xx54QV5j5Z-19" value="ros2_control" style="rounded=1;whiteSpace=wrap;html=1;fillColor=#e1d5e7;strokeColor=#9673a6;" parent="1" vertex="1">
          <mxGeometry x="320" y="120" width="120" height="60" as="geometry" />
        </mxCell>
        <mxCell id="ceeV8JHSW8xx54QV5j5Z-23" value="Ovládání komponent" style="text;html=1;align=center;verticalAlign=middle;whiteSpace=wrap;rounded=0;" parent="1" vertex="1">
          <mxGeometry x="50" y="150" width="120" height="30" as="geometry" />
        </mxCell>
        <mxCell id="ceeV8JHSW8xx54QV5j5Z-24" value="Ovládání robota" style="text;html=1;align=center;verticalAlign=middle;whiteSpace=wrap;rounded=0;" parent="1" vertex="1">
          <mxGeometry x="50" y="40" width="100" height="30" as="geometry" />
        </mxCell>
      </root>
    </mxGraphModel>
  </diagram>
</mxfile>
